<mxfile host="app.diagrams.net" modified="2021-10-28T23:48:08.747Z" agent="5.0 (Windows NT 10.0; Win64; x64) AppleWebKit/537.36 (KHTML, like Gecko) Chrome/94.0.4606.81 Safari/537.36" etag="g6oDuRxb0tagueQtTTPj" version="15.6.2" type="github">
  <diagram id="GuWOcFusu7p0PfRMNaqz" name="Página-1">
    <mxGraphModel dx="1634" dy="771" grid="1" gridSize="10" guides="1" tooltips="1" connect="1" arrows="1" fold="1" page="1" pageScale="1" pageWidth="1169" pageHeight="827" math="0" shadow="0">
      <root>
        <mxCell id="0" />
        <mxCell id="1" parent="0" />
        <mxCell id="1k9wX1MhXVBroX1f29-E-1" value="Sistema de Entrega de Pizza" style="text;html=1;resizable=0;autosize=1;align=center;verticalAlign=middle;points=[];fillColor=none;strokeColor=none;rounded=0;strokeWidth=1;fontSize=27;fontStyle=1" vertex="1" parent="1">
          <mxGeometry x="395" y="40" width="380" height="40" as="geometry" />
        </mxCell>
        <mxCell id="1k9wX1MhXVBroX1f29-E-5" value="Cliente" style="shape=umlActor;verticalLabelPosition=bottom;verticalAlign=top;html=1;outlineConnect=0;fontSize=13;strokeWidth=1;" vertex="1" parent="1">
          <mxGeometry x="105" y="395" width="30" height="60" as="geometry" />
        </mxCell>
        <mxCell id="1k9wX1MhXVBroX1f29-E-8" value="Entregador" style="shape=umlActor;verticalLabelPosition=bottom;verticalAlign=top;html=1;outlineConnect=0;fontSize=13;strokeWidth=1;" vertex="1" parent="1">
          <mxGeometry x="725" y="610" width="30" height="60" as="geometry" />
        </mxCell>
        <mxCell id="1k9wX1MhXVBroX1f29-E-10" value="Ajudante de cozinha" style="shape=umlActor;verticalLabelPosition=bottom;verticalAlign=top;html=1;outlineConnect=0;fontSize=13;strokeWidth=1;" vertex="1" parent="1">
          <mxGeometry x="710" y="400" width="30" height="60" as="geometry" />
        </mxCell>
        <mxCell id="1k9wX1MhXVBroX1f29-E-11" value="Gerente" style="shape=umlActor;verticalLabelPosition=bottom;verticalAlign=top;html=1;outlineConnect=0;fontSize=13;strokeWidth=1;" vertex="1" parent="1">
          <mxGeometry x="845" y="350" width="30" height="60" as="geometry" />
        </mxCell>
        <mxCell id="1k9wX1MhXVBroX1f29-E-12" value="Consultar cardápio" style="ellipse;whiteSpace=wrap;html=1;fontSize=13;strokeWidth=1;align=center;shadow=1;" vertex="1" parent="1">
          <mxGeometry x="240" y="190" width="140" height="40" as="geometry" />
        </mxCell>
        <mxCell id="1k9wX1MhXVBroX1f29-E-13" value="Escolher sabor" style="ellipse;whiteSpace=wrap;html=1;fontSize=13;strokeWidth=1;align=center;shadow=1;" vertex="1" parent="1">
          <mxGeometry x="240" y="290" width="140" height="40" as="geometry" />
        </mxCell>
        <mxCell id="1k9wX1MhXVBroX1f29-E-14" value="Adicionar endereço &lt;br&gt;de entrega" style="ellipse;whiteSpace=wrap;html=1;fontSize=13;strokeWidth=1;align=center;shadow=1;" vertex="1" parent="1">
          <mxGeometry x="240" y="380" width="140" height="50" as="geometry" />
        </mxCell>
        <mxCell id="1k9wX1MhXVBroX1f29-E-15" value="Efetuar pagamento" style="ellipse;whiteSpace=wrap;html=1;fontSize=13;strokeWidth=1;align=center;shadow=1;" vertex="1" parent="1">
          <mxGeometry x="240" y="470" width="140" height="50" as="geometry" />
        </mxCell>
        <mxCell id="1k9wX1MhXVBroX1f29-E-17" value="Consultar pedidos" style="ellipse;whiteSpace=wrap;html=1;fontSize=13;strokeWidth=1;align=center;shadow=1;" vertex="1" parent="1">
          <mxGeometry x="495" y="100" width="140" height="50" as="geometry" />
        </mxCell>
        <mxCell id="1k9wX1MhXVBroX1f29-E-18" value="Atendente" style="shape=umlActor;verticalLabelPosition=bottom;verticalAlign=top;html=1;outlineConnect=0;fontSize=13;strokeWidth=1;" vertex="1" parent="1">
          <mxGeometry x="710" y="150" width="30" height="60" as="geometry" />
        </mxCell>
        <mxCell id="1k9wX1MhXVBroX1f29-E-19" value="Pizzaiolo" style="shape=umlActor;verticalLabelPosition=bottom;verticalAlign=top;html=1;outlineConnect=0;fontSize=13;strokeWidth=1;" vertex="1" parent="1">
          <mxGeometry x="710" y="280" width="30" height="60" as="geometry" />
        </mxCell>
        <mxCell id="1k9wX1MhXVBroX1f29-E-67" value="" style="edgeStyle=orthogonalEdgeStyle;rounded=0;orthogonalLoop=1;jettySize=auto;html=1;fontSize=13;entryX=0.5;entryY=0;entryDx=0;entryDy=0;dashed=1;endArrow=open;endFill=0;" edge="1" parent="1" source="1k9wX1MhXVBroX1f29-E-20" target="1k9wX1MhXVBroX1f29-E-25">
          <mxGeometry relative="1" as="geometry">
            <mxPoint x="635" y="520" as="targetPoint" />
            <Array as="points">
              <mxPoint x="605" y="250" />
              <mxPoint x="815" y="250" />
              <mxPoint x="815" y="510" />
              <mxPoint x="565" y="510" />
            </Array>
          </mxGeometry>
        </mxCell>
        <mxCell id="1k9wX1MhXVBroX1f29-E-68" value="&amp;lt;&amp;lt;include&amp;gt;&amp;gt;" style="edgeLabel;html=1;align=center;verticalAlign=middle;resizable=0;points=[];fontSize=13;" vertex="1" connectable="0" parent="1k9wX1MhXVBroX1f29-E-67">
          <mxGeometry x="0.1602" y="-3" relative="1" as="geometry">
            <mxPoint x="3" y="-135" as="offset" />
          </mxGeometry>
        </mxCell>
        <mxCell id="1k9wX1MhXVBroX1f29-E-20" value="Validar pedidos" style="ellipse;whiteSpace=wrap;html=1;fontSize=13;strokeWidth=1;align=center;shadow=1;" vertex="1" parent="1">
          <mxGeometry x="485" y="190" width="140" height="50" as="geometry" />
        </mxCell>
        <mxCell id="1k9wX1MhXVBroX1f29-E-22" value="Fazer pizza" style="ellipse;whiteSpace=wrap;html=1;fontSize=13;strokeWidth=1;align=center;shadow=1;" vertex="1" parent="1">
          <mxGeometry x="485" y="300" width="140" height="50" as="geometry" />
        </mxCell>
        <mxCell id="1k9wX1MhXVBroX1f29-E-23" value="Separar e organizar ingredientes" style="ellipse;whiteSpace=wrap;html=1;fontSize=13;strokeWidth=1;align=center;shadow=1;" vertex="1" parent="1">
          <mxGeometry x="485" y="405" width="140" height="50" as="geometry" />
        </mxCell>
        <mxCell id="1k9wX1MhXVBroX1f29-E-25" value="Receber chamado" style="ellipse;whiteSpace=wrap;html=1;fontSize=13;strokeWidth=1;align=center;shadow=1;" vertex="1" parent="1">
          <mxGeometry x="495" y="537" width="140" height="50" as="geometry" />
        </mxCell>
        <mxCell id="1k9wX1MhXVBroX1f29-E-26" value="Efetuar a entrega" style="ellipse;whiteSpace=wrap;html=1;fontSize=13;strokeWidth=1;align=center;shadow=1;" vertex="1" parent="1">
          <mxGeometry x="495" y="650" width="140" height="50" as="geometry" />
        </mxCell>
        <mxCell id="1k9wX1MhXVBroX1f29-E-27" value="Receber a pizza" style="ellipse;whiteSpace=wrap;html=1;fontSize=13;strokeWidth=1;align=center;shadow=1;" vertex="1" parent="1">
          <mxGeometry x="240" y="650" width="140" height="50" as="geometry" />
        </mxCell>
        <mxCell id="1k9wX1MhXVBroX1f29-E-28" value="Avaliar o pedido" style="ellipse;whiteSpace=wrap;html=1;fontSize=13;strokeWidth=1;align=center;shadow=1;" vertex="1" parent="1">
          <mxGeometry x="240" y="760" width="140" height="50" as="geometry" />
        </mxCell>
        <mxCell id="1k9wX1MhXVBroX1f29-E-29" value="Gerenciar estoque" style="ellipse;whiteSpace=wrap;html=1;fontSize=13;strokeWidth=1;align=center;shadow=1;" vertex="1" parent="1">
          <mxGeometry x="925" y="400" width="140" height="50" as="geometry" />
        </mxCell>
        <mxCell id="1k9wX1MhXVBroX1f29-E-30" value="Alterar preços do cardápio" style="ellipse;whiteSpace=wrap;html=1;fontSize=13;strokeWidth=1;align=center;shadow=1;" vertex="1" parent="1">
          <mxGeometry x="925" y="285" width="140" height="50" as="geometry" />
        </mxCell>
        <mxCell id="1k9wX1MhXVBroX1f29-E-33" value="" style="endArrow=none;html=1;rounded=0;fontSize=13;entryX=0;entryY=0.5;entryDx=0;entryDy=0;" edge="1" parent="1" source="1k9wX1MhXVBroX1f29-E-5" target="1k9wX1MhXVBroX1f29-E-15">
          <mxGeometry width="50" height="50" relative="1" as="geometry">
            <mxPoint x="145" y="455" as="sourcePoint" />
            <mxPoint x="195" y="405" as="targetPoint" />
          </mxGeometry>
        </mxCell>
        <mxCell id="1k9wX1MhXVBroX1f29-E-34" value="" style="endArrow=none;html=1;rounded=0;fontSize=13;entryX=0;entryY=0.5;entryDx=0;entryDy=0;" edge="1" parent="1" target="1k9wX1MhXVBroX1f29-E-14">
          <mxGeometry width="50" height="50" relative="1" as="geometry">
            <mxPoint x="135" y="420" as="sourcePoint" />
            <mxPoint x="215" y="370" as="targetPoint" />
          </mxGeometry>
        </mxCell>
        <mxCell id="1k9wX1MhXVBroX1f29-E-35" value="" style="endArrow=none;html=1;rounded=0;fontSize=13;entryX=0;entryY=0.5;entryDx=0;entryDy=0;" edge="1" parent="1" target="1k9wX1MhXVBroX1f29-E-13">
          <mxGeometry width="50" height="50" relative="1" as="geometry">
            <mxPoint x="135" y="410" as="sourcePoint" />
            <mxPoint x="195" y="350" as="targetPoint" />
          </mxGeometry>
        </mxCell>
        <mxCell id="1k9wX1MhXVBroX1f29-E-36" value="" style="endArrow=none;html=1;rounded=0;fontSize=13;entryX=0;entryY=0.5;entryDx=0;entryDy=0;" edge="1" parent="1" target="1k9wX1MhXVBroX1f29-E-12">
          <mxGeometry width="50" height="50" relative="1" as="geometry">
            <mxPoint x="135" y="390" as="sourcePoint" />
            <mxPoint x="205" y="305" as="targetPoint" />
          </mxGeometry>
        </mxCell>
        <mxCell id="1k9wX1MhXVBroX1f29-E-37" value="" style="endArrow=none;html=1;rounded=0;fontSize=13;entryX=0;entryY=0.5;entryDx=0;entryDy=0;" edge="1" parent="1" target="1k9wX1MhXVBroX1f29-E-27">
          <mxGeometry width="50" height="50" relative="1" as="geometry">
            <mxPoint x="145" y="470" as="sourcePoint" />
            <mxPoint x="175" y="562" as="targetPoint" />
          </mxGeometry>
        </mxCell>
        <mxCell id="1k9wX1MhXVBroX1f29-E-38" value="&amp;lt;&amp;lt;include&amp;gt;&amp;gt;" style="endArrow=open;endSize=12;dashed=1;html=1;rounded=0;fontSize=13;exitX=1;exitY=0.5;exitDx=0;exitDy=0;entryX=0;entryY=0.5;entryDx=0;entryDy=0;" edge="1" parent="1" source="1k9wX1MhXVBroX1f29-E-15" target="1k9wX1MhXVBroX1f29-E-20">
          <mxGeometry width="160" relative="1" as="geometry">
            <mxPoint x="395" y="500" as="sourcePoint" />
            <mxPoint x="555" y="500" as="targetPoint" />
          </mxGeometry>
        </mxCell>
        <mxCell id="1k9wX1MhXVBroX1f29-E-41" value="&amp;lt;&amp;lt;extend&amp;gt;&amp;gt;" style="endArrow=open;endSize=12;dashed=1;html=1;rounded=0;fontSize=13;entryX=0.5;entryY=1;entryDx=0;entryDy=0;" edge="1" parent="1" source="1k9wX1MhXVBroX1f29-E-13" target="1k9wX1MhXVBroX1f29-E-12">
          <mxGeometry width="160" relative="1" as="geometry">
            <mxPoint x="345" y="350" as="sourcePoint" />
            <mxPoint x="505" y="350" as="targetPoint" />
          </mxGeometry>
        </mxCell>
        <mxCell id="1k9wX1MhXVBroX1f29-E-43" value="" style="endArrow=none;html=1;rounded=0;fontSize=13;exitX=1;exitY=0.5;exitDx=0;exitDy=0;" edge="1" parent="1" source="1k9wX1MhXVBroX1f29-E-17">
          <mxGeometry width="50" height="50" relative="1" as="geometry">
            <mxPoint x="655" y="100" as="sourcePoint" />
            <mxPoint x="705" y="150" as="targetPoint" />
          </mxGeometry>
        </mxCell>
        <mxCell id="1k9wX1MhXVBroX1f29-E-44" value="" style="endArrow=none;html=1;rounded=0;fontSize=13;exitX=1;exitY=0.5;exitDx=0;exitDy=0;" edge="1" parent="1" source="1k9wX1MhXVBroX1f29-E-20">
          <mxGeometry width="50" height="50" relative="1" as="geometry">
            <mxPoint x="635" y="370" as="sourcePoint" />
            <mxPoint x="705" y="170" as="targetPoint" />
          </mxGeometry>
        </mxCell>
        <mxCell id="1k9wX1MhXVBroX1f29-E-46" value="" style="endArrow=none;html=1;rounded=0;fontSize=13;exitX=1;exitY=0.5;exitDx=0;exitDy=0;" edge="1" parent="1" source="1k9wX1MhXVBroX1f29-E-22" target="1k9wX1MhXVBroX1f29-E-19">
          <mxGeometry width="50" height="50" relative="1" as="geometry">
            <mxPoint x="635" y="380" as="sourcePoint" />
            <mxPoint x="705" y="320" as="targetPoint" />
          </mxGeometry>
        </mxCell>
        <mxCell id="1k9wX1MhXVBroX1f29-E-47" value="" style="endArrow=none;html=1;rounded=0;fontSize=13;" edge="1" parent="1" target="1k9wX1MhXVBroX1f29-E-10">
          <mxGeometry width="50" height="50" relative="1" as="geometry">
            <mxPoint x="625" y="430" as="sourcePoint" />
            <mxPoint x="695" y="440" as="targetPoint" />
          </mxGeometry>
        </mxCell>
        <mxCell id="1k9wX1MhXVBroX1f29-E-50" value="" style="endArrow=none;html=1;rounded=0;fontSize=13;exitX=1;exitY=0.5;exitDx=0;exitDy=0;" edge="1" parent="1" source="1k9wX1MhXVBroX1f29-E-25">
          <mxGeometry width="50" height="50" relative="1" as="geometry">
            <mxPoint x="635" y="580" as="sourcePoint" />
            <mxPoint x="715" y="620" as="targetPoint" />
          </mxGeometry>
        </mxCell>
        <mxCell id="1k9wX1MhXVBroX1f29-E-51" value="" style="endArrow=none;html=1;rounded=0;fontSize=13;exitX=1;exitY=0.5;exitDx=0;exitDy=0;" edge="1" parent="1" source="1k9wX1MhXVBroX1f29-E-26">
          <mxGeometry width="50" height="50" relative="1" as="geometry">
            <mxPoint x="635" y="660" as="sourcePoint" />
            <mxPoint x="715" y="640" as="targetPoint" />
          </mxGeometry>
        </mxCell>
        <mxCell id="1k9wX1MhXVBroX1f29-E-55" value="" style="endArrow=none;html=1;rounded=0;fontSize=13;exitX=0;exitY=0.5;exitDx=0;exitDy=0;" edge="1" parent="1" source="1k9wX1MhXVBroX1f29-E-28">
          <mxGeometry width="50" height="50" relative="1" as="geometry">
            <mxPoint x="365" y="580" as="sourcePoint" />
            <mxPoint x="125" y="480" as="targetPoint" />
          </mxGeometry>
        </mxCell>
        <mxCell id="1k9wX1MhXVBroX1f29-E-56" value="Receber pagamento" style="ellipse;whiteSpace=wrap;html=1;fontSize=13;strokeWidth=1;align=center;shadow=1;" vertex="1" parent="1">
          <mxGeometry x="495" y="740" width="140" height="50" as="geometry" />
        </mxCell>
        <mxCell id="1k9wX1MhXVBroX1f29-E-57" value="" style="endArrow=none;html=1;rounded=0;fontSize=13;exitX=1;exitY=0.5;exitDx=0;exitDy=0;" edge="1" parent="1" source="1k9wX1MhXVBroX1f29-E-56">
          <mxGeometry width="50" height="50" relative="1" as="geometry">
            <mxPoint x="505" y="580" as="sourcePoint" />
            <mxPoint x="715" y="660" as="targetPoint" />
          </mxGeometry>
        </mxCell>
        <mxCell id="1k9wX1MhXVBroX1f29-E-58" value="&amp;lt;&amp;lt;extend&amp;gt;&amp;gt;" style="endArrow=open;endSize=12;dashed=1;html=1;rounded=0;fontSize=13;entryX=1;entryY=1;entryDx=0;entryDy=0;exitX=0;exitY=0.5;exitDx=0;exitDy=0;" edge="1" parent="1" source="1k9wX1MhXVBroX1f29-E-56" target="1k9wX1MhXVBroX1f29-E-15">
          <mxGeometry x="0.2429" y="-1" width="160" relative="1" as="geometry">
            <mxPoint x="465" y="740" as="sourcePoint" />
            <mxPoint x="465" y="680" as="targetPoint" />
            <mxPoint as="offset" />
          </mxGeometry>
        </mxCell>
        <mxCell id="1k9wX1MhXVBroX1f29-E-59" value="&amp;lt;&amp;lt;include&amp;gt;&amp;gt;" style="endArrow=open;endSize=12;dashed=1;html=1;rounded=0;fontSize=13;exitX=1;exitY=0.5;exitDx=0;exitDy=0;entryX=0;entryY=0.5;entryDx=0;entryDy=0;" edge="1" parent="1" source="1k9wX1MhXVBroX1f29-E-27" target="1k9wX1MhXVBroX1f29-E-26">
          <mxGeometry width="160" relative="1" as="geometry">
            <mxPoint x="395" y="505" as="sourcePoint" />
            <mxPoint x="495" y="175" as="targetPoint" />
          </mxGeometry>
        </mxCell>
        <mxCell id="1k9wX1MhXVBroX1f29-E-60" value="" style="endArrow=none;html=1;rounded=0;fontSize=13;entryX=0;entryY=0.5;entryDx=0;entryDy=0;" edge="1" parent="1" target="1k9wX1MhXVBroX1f29-E-30">
          <mxGeometry width="50" height="50" relative="1" as="geometry">
            <mxPoint x="885" y="360" as="sourcePoint" />
            <mxPoint x="775" y="530" as="targetPoint" />
          </mxGeometry>
        </mxCell>
        <mxCell id="1k9wX1MhXVBroX1f29-E-61" value="" style="endArrow=none;html=1;rounded=0;fontSize=13;entryX=0;entryY=0.5;entryDx=0;entryDy=0;" edge="1" parent="1" target="1k9wX1MhXVBroX1f29-E-29">
          <mxGeometry width="50" height="50" relative="1" as="geometry">
            <mxPoint x="885" y="400" as="sourcePoint" />
            <mxPoint x="775" y="530" as="targetPoint" />
          </mxGeometry>
        </mxCell>
        <mxCell id="1k9wX1MhXVBroX1f29-E-64" value="" style="endArrow=block;html=1;rounded=0;fontSize=13;endFill=0;" edge="1" parent="1">
          <mxGeometry width="50" height="50" relative="1" as="geometry">
            <mxPoint x="725" y="370" as="sourcePoint" />
            <mxPoint x="725" y="390" as="targetPoint" />
          </mxGeometry>
        </mxCell>
        <mxCell id="1k9wX1MhXVBroX1f29-E-65" value="&amp;lt;&amp;lt;extend&amp;gt;&amp;gt;" style="endArrow=open;endSize=12;dashed=1;html=1;rounded=0;fontSize=13;entryX=0.5;entryY=1;entryDx=0;entryDy=0;exitX=0.5;exitY=0;exitDx=0;exitDy=0;" edge="1" parent="1" source="1k9wX1MhXVBroX1f29-E-28" target="1k9wX1MhXVBroX1f29-E-27">
          <mxGeometry width="160" relative="1" as="geometry">
            <mxPoint x="455.5" y="902.3199999999999" as="sourcePoint" />
            <mxPoint x="324.9974746830583" y="669.9976695296634" as="targetPoint" />
            <mxPoint as="offset" />
          </mxGeometry>
        </mxCell>
        <mxCell id="1k9wX1MhXVBroX1f29-E-66" value="&amp;lt;&amp;lt;include&amp;gt;&amp;gt;" style="endArrow=open;endSize=12;dashed=1;html=1;rounded=0;fontSize=13;exitX=0.5;exitY=1;exitDx=0;exitDy=0;entryX=0.5;entryY=0;entryDx=0;entryDy=0;" edge="1" parent="1" source="1k9wX1MhXVBroX1f29-E-20" target="1k9wX1MhXVBroX1f29-E-22">
          <mxGeometry width="160" relative="1" as="geometry">
            <mxPoint x="565" y="260" as="sourcePoint" />
            <mxPoint x="665" y="-20" as="targetPoint" />
          </mxGeometry>
        </mxCell>
        <mxCell id="1k9wX1MhXVBroX1f29-E-69" value="&amp;lt;&amp;lt;include&amp;gt;&amp;gt;" style="endArrow=open;endSize=12;dashed=1;html=1;rounded=0;fontSize=13;exitX=0.5;exitY=1;exitDx=0;exitDy=0;entryX=0.5;entryY=0;entryDx=0;entryDy=0;" edge="1" parent="1" source="1k9wX1MhXVBroX1f29-E-25" target="1k9wX1MhXVBroX1f29-E-26">
          <mxGeometry width="160" relative="1" as="geometry">
            <mxPoint x="405" y="655" as="sourcePoint" />
            <mxPoint x="505" y="665" as="targetPoint" />
          </mxGeometry>
        </mxCell>
      </root>
    </mxGraphModel>
  </diagram>
</mxfile>
